<svg width="256" height="256" viewBox="0 0 256 256" fill="none" xmlns="http://www.w3.org/2000/svg">
<g clip-path="url(#clip0_105_7)">
<path d="M52.209 203.791L8.413 159.995C3.218 154.67 0 147.141 0 139.782C0 136.375 1.92 131.049 3.369 128L43.796 43.7959L52.209 203.791Z" fill="#01579B"/>
<path d="M202.116 52.209L158.32 8.413C154.5 4.573 146.538 0 139.8 0C134.004 0 128.32 1.167 124.65 3.369L43.8149 43.796L202.116 52.209ZM104.418 256H210.529V210.529L131.369 185.253L58.9469 210.529L104.418 256Z" fill="#40C4FF"/>
<path d="M43.796 180.209C43.796 193.722 45.49 197.035 52.209 203.791L58.947 210.529H210.529L136.432 126.325L43.796 43.7949V180.209Z" fill="#29B6F6"/>
<path d="M178.534 43.7773H43.796L210.529 210.51H256V106.093L202.097 52.1903C194.531 44.6053 187.812 43.7773 178.534 43.7773Z" fill="#01579B"/>
<path opacity="0.2" d="M53.903 205.466C47.165 198.71 45.49 192.047 45.49 180.209V45.4699L43.815 43.7949V180.208C43.795 192.046 43.795 195.321 53.903 205.465L58.947 210.509L53.903 205.466Z" fill="white"/>
<path opacity="0.2" d="M254.325 104.418V208.835H208.854L210.529 210.529H256V106.093L254.325 104.418Z" fill="#263238"/>
<path opacity="0.2" d="M202.116 52.2089C193.76 43.8519 186.928 43.7959 176.859 43.7959H43.8149L45.4899 45.4709H176.859C181.884 45.4709 194.569 44.6239 202.116 52.2089Z" fill="white"/>
<path opacity="0.2" d="M254.325 104.418L202.116 52.208L158.32 8.414C154.5 4.573 146.538 0 139.8 0C134.004 0 128.32 1.167 124.65 3.369L43.8149 43.796L3.38794 128C1.93794 131.068 0.0179443 136.394 0.0179443 139.782C0.0179443 147.141 3.25594 154.65 8.43194 159.995L48.7829 200.065C49.7429 201.25 50.8729 202.455 52.2089 203.791L53.8839 205.466L58.9279 210.51L102.724 254.306L104.399 255.981H210.49V210.511H255.961V106.092L254.325 104.418Z" fill="url(#paint0_radial_105_7)"/>
</g>
<defs>
<radialGradient id="paint0_radial_105_7" cx="0" cy="0" r="1" gradientUnits="userSpaceOnUse" gradientTransform="translate(12797.2 12797.6) scale(12798.2 12798.2)">
<stop stop-color="white" stop-opacity="0.1"/>
<stop offset="1" stop-color="white" stop-opacity="0"/>
</radialGradient>
<clipPath id="clip0_105_7">
<rect width="256" height="256" fill="white"/>
</clipPath>
</defs>
</svg>
