<svg width="256" height="256" viewBox="0 0 256 256" fill="none" xmlns="http://www.w3.org/2000/svg">
<g clip-path="url(#clip0_105_16)">
<path d="M196 0H60C26.8629 0 0 26.8629 0 60V196C0 229.137 26.8629 256 60 256H196C229.137 256 256 229.137 256 196V60C256 26.8629 229.137 0 196 0Z" fill="#092E20"/>
<path d="M112.689 51H141.304V183.45C126.625 186.237 115.848 187.352 104.143 187.352C69.209 187.351 51 171.559 51 141.271C51 112.098 70.325 93.147 100.24 93.147C104.885 93.147 108.415 93.517 112.689 94.632V51ZM112.689 117.671C109.345 116.558 106.558 116.186 103.028 116.186C88.535 116.186 80.172 125.105 80.172 140.712C80.172 155.95 88.163 164.311 102.842 164.311C105.999 164.311 108.602 164.125 112.689 163.569V117.671Z" fill="white"/>
<path d="M186.826 95.1903V161.522C186.826 184.378 185.154 195.34 180.137 204.817C175.491 213.923 169.359 219.682 156.724 226L130.153 213.364C142.788 207.419 148.92 202.218 152.821 194.225C156.91 186.05 158.212 176.573 158.212 151.675V95.1893L186.826 95.1903ZM158.212 51.1523H186.826V80.5103H158.212V51.1523Z" fill="white"/>
</g>
<defs>
<clipPath id="clip0_105_16">
<rect width="256" height="256" fill="white"/>
</clipPath>
</defs>
</svg>
