<svg width="40" height="40" viewBox="0 0 40 40" fill="none" xmlns="http://www.w3.org/2000/svg">
<path d="M9.36001 33.3335C8.61334 33.3335 7.97778 33.0713 7.45334 32.5468C6.92889 32.0224 6.66667 31.3874 6.66667 30.6418V9.3585C6.66667 8.61405 6.92889 7.97905 7.45334 7.4535C7.97778 6.92905 8.61334 6.66683 9.36001 6.66683H17.1933C17.0411 5.81572 17.2444 5.04739 17.8033 4.36183C18.3611 3.67627 19.0933 3.3335 20 3.3335C20.9278 3.3335 21.6711 3.67627 22.23 4.36183C22.7889 5.04739 22.9817 5.81572 22.8083 6.66683H30.6417C31.3861 6.66683 32.0211 6.92905 32.5467 7.4535C33.0711 7.97794 33.3333 8.6135 33.3333 9.36016V30.6418C33.3333 31.3863 33.0711 32.0213 32.5467 32.5468C32.0222 33.0713 31.3872 33.3335 30.6417 33.3335H9.36001ZM9.36001 31.6668H30.6417C30.8972 31.6668 31.1322 31.5602 31.3467 31.3468C31.5611 31.1335 31.6678 30.8979 31.6667 30.6402V9.36016C31.6667 9.1035 31.56 8.86794 31.3467 8.6535C31.1333 8.43905 30.8978 8.33238 30.64 8.3335H9.36001C9.10334 8.3335 8.86778 8.44016 8.65334 8.6535C8.43889 8.86683 8.33223 9.10239 8.33334 9.36016V30.6418C8.33334 30.8974 8.44 31.1324 8.65334 31.3468C8.86667 31.5613 9.10167 31.6679 9.35834 31.6668M12.5 27.1168H22.5V25.4502H12.5V27.1168ZM12.5 20.8335H27.5V19.1668H12.5V20.8335ZM12.5 14.5502H27.5V12.8835H12.5V14.5502ZM20 7.40516C20.3611 7.40516 20.66 7.28738 20.8967 7.05183C21.1333 6.81627 21.2511 6.51739 21.25 6.15516C21.2489 5.79294 21.1306 5.49461 20.895 5.26016C20.6594 5.02572 20.3611 4.90683 20 4.9035C19.6389 4.90016 19.3406 5.0185 19.105 5.2585C18.8694 5.4985 18.7511 5.79683 18.75 6.1535C18.7489 6.51016 18.8672 6.80905 19.105 7.05016C19.3428 7.29127 19.6411 7.41072 20 7.40516Z" fill="#4484FF"/>
</svg>
