<svg width="41" height="41" viewBox="0 0 41 41" fill="none" xmlns="http://www.w3.org/2000/svg">
<path d="M34.7829 24.2511V17.5844C34.7829 11.299 34.7829 8.15635 32.8304 6.20372C30.8778 4.2511 27.7351 4.2511 21.4496 4.2511H19.7831C13.4978 4.2511 10.3552 4.2511 8.40254 6.2037C6.4499 8.1563 6.44989 11.299 6.44984 17.5843L6.44977 24.2509C6.44972 30.5364 6.44969 33.6791 8.40232 35.6318C10.3549 37.5844 13.4977 37.5844 19.7831 37.5844H21.4496C27.7351 37.5844 30.8778 37.5844 32.8304 35.6318C34.7829 33.6793 34.7829 30.5364 34.7829 24.2511Z" stroke="#4444FF" stroke-width="2.54795" stroke-linecap="round" stroke-linejoin="round"/>
<path d="M13.9498 12.5845H27.2831M13.9498 20.9178H27.2831M13.9498 29.2511H20.6164" stroke="#4444FF" stroke-width="2.54795" stroke-linecap="round" stroke-linejoin="round"/>
</svg>
