<svg width="40" height="40" viewBox="0 0 40 40" fill="none" xmlns="http://www.w3.org/2000/svg">
<path d="M32.1875 12.5C32.1875 12.7486 32.0887 12.9871 31.9129 13.1629C31.7371 13.3387 31.4986 13.4375 31.25 13.4375H25.8891C25.9211 13.749 25.9373 14.0619 25.9375 14.375C25.9346 16.7776 24.9789 19.081 23.28 20.78C21.581 22.4789 19.2776 23.4346 16.875 23.4375H13.675L25.625 34.3062C25.809 34.4737 25.9189 34.7073 25.9307 34.9558C25.9424 35.2043 25.8549 35.4473 25.6875 35.6312C25.5201 35.8152 25.2864 35.9252 25.0379 35.9369C24.7895 35.9486 24.5465 35.8612 24.3625 35.6938L10.6125 23.1938C10.472 23.0661 10.3736 22.8988 10.3303 22.714C10.287 22.5291 10.3008 22.3355 10.3699 22.1587C10.4389 21.9819 10.5601 21.8303 10.7172 21.7238C10.8744 21.6173 11.0602 21.5611 11.25 21.5625H16.875C18.7805 21.56 20.6072 20.802 21.9546 19.4546C23.302 18.1072 24.06 16.2805 24.0625 14.375C24.0613 14.0615 24.0404 13.7484 24 13.4375H11.25C11.0014 13.4375 10.7629 13.3387 10.5871 13.1629C10.4113 12.9871 10.3125 12.7486 10.3125 12.5C10.3125 12.2514 10.4113 12.0129 10.5871 11.8371C10.7629 11.6613 11.0014 11.5625 11.25 11.5625H23.4891C22.936 10.2658 22.0144 9.16009 20.8386 8.38237C19.6629 7.60465 18.2847 7.18918 16.875 7.1875H11.25C11.0014 7.1875 10.7629 7.08873 10.5871 6.91291C10.4113 6.7371 10.3125 6.49864 10.3125 6.25C10.3125 6.00136 10.4113 5.7629 10.5871 5.58709C10.7629 5.41127 11.0014 5.3125 11.25 5.3125H31.25C31.4986 5.3125 31.7371 5.41127 31.9129 5.58709C32.0887 5.7629 32.1875 6.00136 32.1875 6.25C32.1875 6.49864 32.0887 6.7371 31.9129 6.91291C31.7371 7.08873 31.4986 7.1875 31.25 7.1875H22.3859C23.8363 8.30101 24.9176 9.82556 25.4891 11.5625H31.25C31.4986 11.5625 31.7371 11.6613 31.9129 11.8371C32.0887 12.0129 32.1875 12.2514 32.1875 12.5Z" fill="#44ff"/>
</svg>
