<svg width="41" height="41" viewBox="0 0 41 41" fill="none" xmlns="http://www.w3.org/2000/svg">
<path d="M23.9498 30.137C31.3136 30.137 37.2831 24.1675 37.2831 16.8037C37.2831 9.43987 31.3136 3.47034 23.9498 3.47034C16.586 3.47034 10.6164 9.43987 10.6164 16.8037C10.6164 24.1675 16.586 30.137 23.9498 30.137Z" stroke="#4444FF" stroke-width="2.54795" stroke-linecap="round"/>
<path d="M5.87738 18.4703C4.65848 20.3329 3.94977 22.5594 3.94977 24.9516C3.94977 31.4973 9.25607 36.8036 15.8017 36.8036C18.1939 36.8036 20.4204 36.0949 22.2831 34.8759" stroke="#4444FF" stroke-width="2.54795" stroke-linecap="round"/>
<path d="M26.9018 13.8124C26.5414 12.2921 24.7074 10.9204 22.5059 11.9466C20.3044 12.9729 19.9548 16.2748 23.2848 16.6255C24.7899 16.7841 25.7711 16.4416 26.6696 17.4105C27.5679 18.3793 27.7349 21.0736 25.4383 21.7998C23.1416 22.526 20.8674 21.3913 20.6198 19.7803M23.9268 10.144V11.5924M23.9268 22.0233V23.4773" stroke="#4444FF" stroke-width="2.54795" stroke-linecap="round" stroke-linejoin="round"/>
</svg>
