<svg width="48" height="48" viewBox="0 0 48 48" fill="none" xmlns="http://www.w3.org/2000/svg">
<path d="M32.016 17.267C32.016 17.267 30.29 28.463 37.162 28.639M37.162 28.639V17.267M37.162 28.639C44.033 28.463 42.307 17.267 42.307 17.267M33.098 42.145C33.098 42.145 34.551 32.703 25.836 32.703C23.518 34.249 21.532 35.317 19.299 35.313H19.39C17.158 35.317 15.172 34.249 12.854 32.703C4.138 32.703 5.591 42.145 5.591 42.145M23.657 19.59C23.657 19.7808 23.6194 19.9698 23.5464 20.146C23.4734 20.3223 23.3663 20.4825 23.2314 20.6174C23.0965 20.7523 22.9363 20.8594 22.76 20.9324C22.5837 21.0054 22.3948 21.043 22.204 21.043C22.0132 21.043 21.8242 21.0054 21.648 20.9324C21.4717 20.8594 21.3115 20.7523 21.1766 20.6174C21.0416 20.4825 20.9346 20.3223 20.8616 20.146C20.7886 19.9698 20.751 19.7808 20.751 19.59C20.751 19.2046 20.9041 18.8351 21.1766 18.5626C21.4491 18.2901 21.8186 18.137 22.204 18.137C22.5894 18.137 22.9589 18.2901 23.2314 18.5626C23.5039 18.8351 23.657 19.2046 23.657 19.59ZM17.847 19.59C17.847 19.9754 17.6939 20.3449 17.4214 20.6174C17.1489 20.8899 16.7794 21.043 16.394 21.043C16.0086 21.043 15.6391 20.8899 15.3666 20.6174C15.0941 20.3449 14.941 19.9754 14.941 19.59C14.941 19.2046 15.0941 18.8351 15.3666 18.5626C15.6391 18.2901 16.0086 18.137 16.394 18.137C16.7794 18.137 17.1489 18.2901 17.4214 18.5626C17.6939 18.8351 17.847 19.2046 17.847 19.59Z" stroke="black" stroke-linecap="round" stroke-linejoin="round"/>
<path d="M11.131 18.137C10.868 19.4991 10.8265 20.8947 11.008 22.27L10.665 21.89C10.665 21.89 7.28501 16.914 12.519 11.801H25.747C30.981 16.914 27.602 21.89 27.602 21.89L23.491 12.72C23.491 12.72 22.417 15.485 19.385 15.258C19.385 15.258 20.158 11.801 19.179 11.801C19.179 11.801 15.414 16.317 11.137 18.138" stroke="black" stroke-linecap="round" stroke-linejoin="round"/>
<path d="M11.297 18.137C11.1425 18.9418 11.0645 19.7595 11.064 20.579C11.064 26.264 14.751 30.873 19.299 30.873C23.635 30.873 27.188 26.685 27.51 21.368M12.808 32.704L17.023 39.158L19.345 35.312L21.666 39.158L25.881 32.704" stroke="black" stroke-linecap="round" stroke-linejoin="round"/>
<path d="M13.003 32.889V42.135M13.003 42.135L25.675 42.125M13.003 42.135L5.59 42.145M25.675 42.125V32.874M25.675 42.125L33.098 42.145M12.919 11.801V5.844L19.299 6.874L25.679 5.844V11.801M9.27 33.395V42.135M29.237 33.395V42.155M12.919 9.256H25.679M7.347 11.801H31M37.225 31.722V42.145M16.47 25.258C18.11 26.73 20.496 26.866 22.128 25.258M35.235 28.64H39.215V31.722H35.235V28.64Z" stroke="black" stroke-linecap="round" stroke-linejoin="round"/>
</svg>
