<svg width="40" height="40" viewBox="0 0 40 40" fill="none" xmlns="http://www.w3.org/2000/svg">
    <path
        d="M10 33.3333C9.08333 33.3333 8.29889 33.0072 7.64667 32.355C6.99444 31.7027 6.66778 30.9177 6.66667 30C6.66556 29.0822 6.99222 28.2977 7.64667 27.6466C8.30111 26.9955 9.08556 26.6689 10 26.6666C10.9144 26.6644 11.6994 26.9911 12.355 27.6466C13.0106 28.3022 13.3367 29.0866 13.3333 30C13.33 30.9133 13.0039 31.6983 12.355 32.355C11.7061 33.0116 10.9211 33.3377 10 33.3333ZM23.3333 33.3333C22.4167 33.3333 21.6322 33.0072 20.98 32.355C20.3278 31.7027 20.0011 30.9177 20 30C19.9989 29.0822 20.3256 28.2977 20.98 27.6466C21.6344 26.9955 22.4189 26.6689 23.3333 26.6666C24.2478 26.6644 25.0328 26.9911 25.6883 27.6466C26.3439 28.3022 26.67 29.0866 26.6667 30C26.6633 30.9133 26.3372 31.6983 25.6883 32.355C25.0394 33.0116 24.2544 33.3377 23.3333 33.3333ZM16.6667 26.6666C15.75 26.6666 14.9656 26.3405 14.3133 25.6883C13.6611 25.0361 13.3344 24.2511 13.3333 23.3333C13.3322 22.4155 13.6589 21.6311 14.3133 20.98C14.9678 20.3289 15.7522 20.0022 16.6667 20C17.5811 19.9977 18.3661 20.3244 19.0217 20.98C19.6772 21.6355 20.0033 22.42 20 23.3333C19.9967 24.2466 19.6706 25.0316 19.0217 25.6883C18.3728 26.345 17.5878 26.6711 16.6667 26.6666ZM30 26.6666C29.0833 26.6666 28.2989 26.3405 27.6467 25.6883C26.9944 25.0361 26.6678 24.2511 26.6667 23.3333C26.6656 22.4155 26.9922 21.6311 27.6467 20.98C28.3011 20.3289 29.0856 20.0022 30 20C30.9144 19.9977 31.6994 20.3244 32.355 20.98C33.0106 21.6355 33.3367 22.42 33.3333 23.3333C33.33 24.2466 33.0039 25.0316 32.355 25.6883C31.7061 26.345 30.9211 26.6711 30 26.6666ZM10 20C9.08333 20 8.29889 19.6739 7.64667 19.0216C6.99444 18.3694 6.66778 17.5844 6.66667 16.6666C6.66556 15.7489 6.99222 14.9644 7.64667 14.3133C8.30111 13.6622 9.08556 13.3355 10 13.3333C10.9144 13.3311 11.6994 13.6577 12.355 14.3133C13.0106 14.9689 13.3367 15.7533 13.3333 16.6666C13.33 17.58 13.0039 18.365 12.355 19.0216C11.7061 19.6783 10.9211 20.0044 10 20ZM23.3333 20C22.4167 20 21.6322 19.6739 20.98 19.0216C20.3278 18.3694 20.0011 17.5844 20 16.6666C19.9989 15.7489 20.3256 14.9644 20.98 14.3133C21.6344 13.6622 22.4189 13.3355 23.3333 13.3333C24.2478 13.3311 25.0328 13.6577 25.6883 14.3133C26.3439 14.9689 26.67 15.7533 26.6667 16.6666C26.6633 17.58 26.3372 18.365 25.6883 19.0216C25.0394 19.6783 24.2544 20.0044 23.3333 20ZM16.6667 13.3333C15.75 13.3333 14.9656 13.0072 14.3133 12.355C13.6611 11.7027 13.3344 10.9177 13.3333 9.99997C13.3322 9.08219 13.6589 8.29775 14.3133 7.64664C14.9678 6.99553 15.7522 6.66886 16.6667 6.66664C17.5811 6.66442 18.3661 6.99108 19.0217 7.64664C19.6772 8.30219 20.0033 9.08664 20 9.99997C19.9967 10.9133 19.6706 11.6983 19.0217 12.355C18.3728 13.0116 17.5878 13.3377 16.6667 13.3333ZM30 13.3333C29.0833 13.3333 28.2989 13.0072 27.6467 12.355C26.9944 11.7027 26.6678 10.9177 26.6667 9.99997C26.6656 9.08219 26.9922 8.29775 27.6467 7.64664C28.3011 6.99553 29.0856 6.66886 30 6.66664C30.9144 6.66442 31.6994 6.99108 32.355 7.64664C33.0106 8.30219 33.3367 9.08664 33.3333 9.99997C33.33 10.9133 33.0039 11.6983 32.355 12.355C31.7061 13.0116 30.9211 13.3377 30 13.3333Z"
        fill="#058ED9" />
</svg>