<svg width="42" height="40" viewBox="0 0 42 40" fill="none" xmlns="http://www.w3.org/2000/svg">
<path d="M34.6382 11.8749H26.75C27.485 11.5585 28.1676 11.1372 28.7753 10.6249C29.1968 10.2598 29.5363 9.81366 29.7725 9.31462C30.0087 8.81559 30.1366 8.27438 30.148 7.72494C30.1662 7.11605 30.0565 6.50996 29.8257 5.94386C29.5949 5.37775 29.2478 4.86356 28.8057 4.43283C28.3636 4.0021 27.8359 3.66391 27.2549 3.439C26.6739 3.2141 26.0519 3.10723 25.427 3.12494C24.8631 3.13609 24.3076 3.26066 23.7954 3.49081C23.2833 3.72097 22.8254 4.05176 22.4507 4.46244C21.5029 5.50462 20.9064 6.86244 20.5263 8.164C20.1495 6.86244 19.5529 5.50775 18.602 4.46244C18.2272 4.05176 17.7693 3.72097 17.2572 3.49081C16.745 3.26066 16.1896 3.13609 15.6257 3.12494C15.0007 3.10723 14.3787 3.2141 13.7977 3.439C13.2167 3.66391 12.689 4.0021 12.2469 4.43283C11.8048 4.86356 11.4578 5.37775 11.2269 5.94386C10.9961 6.50996 10.8864 7.11605 10.9046 7.72494C10.916 8.27438 11.0439 8.81559 11.2801 9.31462C11.5163 9.81366 11.8558 10.2598 12.2773 10.6249C12.885 11.1372 13.5676 11.5585 14.3027 11.8749H6.41447C5.9041 11.8749 5.41464 12.0725 5.05375 12.4241C4.69287 12.7757 4.49013 13.2527 4.49013 13.7499V18.7499C4.49013 19.2472 4.69287 19.7241 5.05375 20.0758C5.41464 20.4274 5.9041 20.6249 6.41447 20.6249H7.05592V31.2499C7.05592 31.7472 7.25866 32.2241 7.61954 32.5758C7.98043 32.9274 8.46989 33.1249 8.98026 33.1249H32.0724C32.5827 33.1249 33.0722 32.9274 33.4331 32.5758C33.794 32.2241 33.9967 31.7472 33.9967 31.2499V20.6249H34.6382C35.1485 20.6249 35.638 20.4274 35.9989 20.0758C36.3598 19.7241 36.5625 19.2472 36.5625 18.7499V13.7499C36.5625 13.2527 36.3598 12.7757 35.9989 12.4241C35.638 12.0725 35.1485 11.8749 34.6382 11.8749ZM23.4128 5.29056C23.6719 5.00853 23.9879 4.78163 24.3411 4.62408C24.6943 4.46652 25.0771 4.38171 25.4655 4.37494H25.5633C26.005 4.37539 26.4422 4.4621 26.8491 4.62993C27.2559 4.79776 27.624 5.04332 27.9318 5.35209C28.2396 5.66087 28.4808 6.02662 28.6411 6.42772C28.8014 6.82883 28.8776 7.25716 28.8651 7.68744C28.8582 8.06587 28.7711 8.43883 28.6094 8.78297C28.4477 9.12711 28.2149 9.43503 27.9254 9.68744C25.9866 11.3593 22.6222 11.7515 21.1902 11.8421C21.2896 10.4578 21.6905 7.18744 23.4128 5.29056ZM12.1875 7.68744C12.1751 7.25716 12.2513 6.82883 12.4116 6.42772C12.5719 6.02662 12.813 5.66087 13.1208 5.35209C13.4286 5.04332 13.7968 4.79776 14.2036 4.62993C14.6104 4.4621 15.0476 4.37539 15.4893 4.37494H15.5872C15.9756 4.38171 16.3583 4.46652 16.7115 4.62408C17.0647 4.78163 17.3807 5.00853 17.6398 5.29056C19.3573 7.17963 19.7582 10.4578 19.8512 11.8531C18.4256 11.7624 15.0612 11.3702 13.116 9.69837C12.8272 9.44375 12.5956 9.13364 12.4358 8.78755C12.276 8.44147 12.1915 8.06691 12.1875 7.68744ZM5.77302 18.7499V13.7499C5.77302 13.5842 5.8406 13.4252 5.9609 13.308C6.08119 13.1908 6.24435 13.1249 6.41447 13.1249H19.8849V19.3749H6.41447C6.24435 19.3749 6.08119 19.3091 5.9609 19.1919C5.8406 19.0747 5.77302 18.9157 5.77302 18.7499ZM8.33881 31.2499V20.6249H19.8849V31.8749H8.98026C8.81014 31.8749 8.64698 31.8091 8.52669 31.6919C8.40639 31.5747 8.33881 31.4157 8.33881 31.2499ZM32.7138 31.2499C32.7138 31.4157 32.6462 31.5747 32.5259 31.6919C32.4056 31.8091 32.2425 31.8749 32.0724 31.8749H21.1678V20.6249H32.7138V31.2499ZM35.2796 18.7499C35.2796 18.9157 35.212 19.0747 35.0917 19.1919C34.9714 19.3091 34.8083 19.3749 34.6382 19.3749H21.1678V13.1249H34.6382C34.8083 13.1249 34.9714 13.1908 35.0917 13.308C35.212 13.4252 35.2796 13.5842 35.2796 13.7499V18.7499Z" fill="#44ff"/>
</svg>
