<svg width="41" height="40" viewBox="0 0 41 40" fill="none" xmlns="http://www.w3.org/2000/svg">
<path d="M6.89954 18.3333V25C6.89954 30.4996 6.89954 33.2495 8.60809 34.9581C10.3166 36.6666 13.0665 36.6666 18.5662 36.6666H21.8995C27.3992 36.6666 30.149 36.6666 31.8577 34.9581C33.5662 33.2495 33.5662 30.4996 33.5662 25V18.3333" stroke="#4444FF" stroke-width="2.54795" stroke-linecap="round" stroke-linejoin="round"/>
<path d="M5.23285 15C5.23285 13.7539 5.23285 13.1308 5.56778 12.6667C5.7872 12.3627 6.1028 12.1102 6.48285 11.9346C7.06298 11.6667 7.84182 11.6667 9.39952 11.6667H31.0662C32.6238 11.6667 33.4027 11.6667 33.9828 11.9346C34.3628 12.1102 34.6785 12.3627 34.8978 12.6667C35.2328 13.1308 35.2328 13.7539 35.2328 15C35.2328 16.2462 35.2328 16.8692 34.8978 17.3334C34.6785 17.6374 34.3628 17.8899 33.9828 18.0654C33.4027 18.3334 32.6238 18.3334 31.0662 18.3334H9.39952C7.84182 18.3334 7.06298 18.3334 6.48285 18.0654C6.1028 17.8899 5.7872 17.6374 5.56778 17.3334C5.23285 16.8692 5.23285 16.2462 5.23285 15Z" stroke="#4444FF" stroke-width="2.54795" stroke-linejoin="round"/>
<path d="M10.2328 6.30956C10.2328 4.66586 11.5653 3.33337 13.209 3.33337H13.8043C17.3547 3.33337 20.2328 6.21154 20.2328 9.76194V11.6667H15.59C12.6313 11.6667 10.2328 9.26822 10.2328 6.30956Z" stroke="#4444FF" stroke-width="2.54795" stroke-linejoin="round"/>
<path d="M30.2329 6.30956C30.2329 4.66586 28.9004 3.33337 27.2567 3.33337H26.6614C23.111 3.33337 20.2329 6.21154 20.2329 9.76194V11.6667H24.8757C27.8344 11.6667 30.2329 9.26822 30.2329 6.30956Z" stroke="#4444FF" stroke-width="2.54795" stroke-linejoin="round"/>
<path d="M20.2329 18.3333V36.6666" stroke="#4444FF" stroke-width="2.54795" stroke-linecap="round" stroke-linejoin="round"/>
</svg>
