<svg width="93" height="70" viewBox="0 0 93 70" fill="none" xmlns="http://www.w3.org/2000/svg">
<path fill-rule="evenodd" clip-rule="evenodd" d="M56.256 68.6412V68.736L43.7268 68.482L31.4516 68.736V68.448H24.96C21.952 68.448 18.976 68.128 16.032 67.488C13.088 66.848 10.4 65.824 7.968 64.416C5.536 62.944 3.616 60.96 2.208 58.464C0.736 55.904 0 52.768 0 49.056C0 45.024 0.864 41.824 2.592 39.456C4.256 37.024 6.432 35.232 9.12 34.08C11.808 32.928 14.688 32.224 17.76 31.968C15.52 31.2 13.376 30.144 11.328 28.8C9.216 27.392 7.488 25.632 6.144 23.52C4.736 21.408 4.032 18.88 4.032 15.936C4.032 12.864 4.672 10.368 5.952 8.44801C7.168 6.464 8.8 4.928 10.848 3.84C12.832 2.688 15.008 1.888 17.376 1.44C19.68 0.928003 21.984 0.608004 24.288 0.480005C26.592 0.352003 28.608 0.288002 30.336 0.288002H31.4516V0L43.8538 0.251397L56.256 0V0.288002H58.7156C62.5556 0.288002 66.1396 0.544003 69.4676 1.056C72.7956 1.504 75.7076 2.4 78.2036 3.744C80.6996 5.024 82.6516 6.912 84.0596 9.408C85.4676 11.904 86.1716 15.136 86.1716 19.104C86.1716 24.8 84.0276 29.408 79.7396 32.928C75.4516 36.448 69.2116 38.208 61.0196 38.208H49.7876V55.68C49.7876 58.816 50.0436 61.088 50.5556 62.496C51.1316 63.84 52.1236 64.736 53.5316 65.184C54.9396 65.568 56.9236 65.888 59.4836 66.144L61.5956 66.336V68.736L56.256 68.6412ZM49.7876 3.45784V35.328H61.0196C65.4356 35.328 68.7956 34.688 71.0996 33.408C73.4036 32.128 74.9716 30.272 75.8036 27.84C76.6356 25.408 77.0516 22.496 77.0516 19.104C77.0516 15.456 76.5716 12.576 75.6116 10.464C74.7156 8.288 73.4996 6.656 71.9636 5.568C70.4916 4.48 68.8916 3.776 67.1636 3.456C65.4996 3.136 63.9316 2.976 62.4596 2.976H51.7455C50.9953 3.1194 50.3427 3.28001 49.7876 3.45784ZM35.9621 2.976H27.456C24.384 2.976 21.792 3.296 19.68 3.936C17.504 4.576 15.84 5.824 14.688 7.68C13.536 9.536 12.96 12.288 12.96 15.936C12.96 21.056 14.08 24.896 16.32 27.456C18.496 30.016 21.568 31.296 25.536 31.296H38.304V3.58928C37.6735 3.35835 36.8929 3.15393 35.9621 2.976ZM24.96 65.76H30.336C33.024 65.76 35.04 65.12 36.384 63.84C37.664 62.496 38.304 59.904 38.304 56.064V33.984H29.376C24.768 33.984 20.96 34.336 17.952 35.04C14.944 35.744 12.704 37.184 11.232 39.36C9.76 41.536 9.024 44.8 9.024 49.152C9.024 53.632 9.696 57.088 11.04 59.52C12.32 61.888 14.176 63.52 16.608 64.416C18.976 65.312 21.76 65.76 24.96 65.76ZM82.6309 67.68C83.7829 68.896 85.2549 69.504 87.0469 69.504C88.7109 69.504 90.1189 68.896 91.2709 67.68C92.4229 66.464 92.9989 65.024 92.9989 63.36C92.9989 61.76 92.4229 60.384 91.2709 59.232C90.1189 58.016 88.7109 57.408 87.0469 57.408C85.2549 57.408 83.7829 58.016 82.6309 59.232C81.4789 60.384 80.9029 61.76 80.9029 63.36C80.9029 65.024 81.4789 66.464 82.6309 67.68Z" fill="#0048D4"/>
</svg>
