<svg width="96" height="70" viewBox="0 0 96 70" fill="none" xmlns="http://www.w3.org/2000/svg">
<path fill-rule="evenodd" clip-rule="evenodd" d="M56.7106 68.6079V68.736L45.1305 68.5013L33.7851 68.736V68.448H25.4146C22.4066 68.448 19.4306 68.128 16.4866 67.488C13.5426 66.848 10.8546 65.824 8.42259 64.416C5.99059 62.944 4.07059 60.96 2.66259 58.464C1.19059 55.904 0.45459 52.768 0.45459 49.056C0.45459 45.024 1.31859 41.824 3.04659 39.456C4.71059 37.024 6.88659 35.232 9.57459 34.08C12.2626 32.928 15.1426 32.224 18.2146 31.968C15.9746 31.2 13.8306 30.144 11.7826 28.8C9.67059 27.392 7.94259 25.632 6.59859 23.52C5.19059 21.408 4.48659 18.88 4.48659 15.936C4.48659 12.864 5.12659 10.368 6.40659 8.44801C7.62259 6.464 9.25459 4.928 11.3026 3.84C13.2866 2.688 15.4626 1.888 17.8306 1.44C20.1346 0.928003 22.4386 0.608004 24.7426 0.480005C27.0466 0.352003 29.0626 0.288002 30.7906 0.288002H33.7851V0L45.2479 0.232354L56.7106 0V0.288002H61.0491C64.8891 0.288002 68.4731 0.544003 71.8011 1.056C75.1291 1.504 78.0411 2.4 80.5371 3.744C83.0331 5.024 84.9851 6.912 86.3931 9.408C87.8011 11.904 88.5051 15.136 88.5051 19.104C88.5051 24.8 86.3611 29.408 82.0731 32.928C77.7851 36.448 71.5451 38.208 63.3531 38.208H52.1211V55.68C52.1211 58.816 52.3771 61.088 52.8891 62.496C53.4651 63.84 54.4571 64.736 55.8651 65.184C57.2731 65.568 59.2571 65.888 61.8171 66.144L63.9291 66.336V68.736L56.7106 68.6079ZM52.1211 2.99123V35.328H63.3531C67.7691 35.328 71.1291 34.688 73.4331 33.408C75.7371 32.128 77.3051 30.272 78.1371 27.84C78.9691 25.408 79.3851 22.496 79.3851 19.104C79.3851 15.456 78.9051 12.576 77.9451 10.464C77.0491 8.288 75.8331 6.656 74.2971 5.568C72.8251 4.48 71.2251 3.776 69.4971 3.456C67.8331 3.136 66.2651 2.976 64.7931 2.976H52.2001C52.1737 2.98106 52.1473 2.98613 52.1211 2.99123ZM38.2956 2.976H27.9106C24.8386 2.976 22.2466 3.296 20.1346 3.936C17.9586 4.576 16.2946 5.824 15.1426 7.68C13.9906 9.536 13.4146 12.288 13.4146 15.936C13.4146 21.056 14.5346 24.896 16.7746 27.456C18.9506 30.016 22.0226 31.296 25.9906 31.296H38.7586V3.06931C38.6086 3.03744 38.4543 3.00634 38.2956 2.976ZM25.4146 65.76H30.7906C33.4786 65.76 35.4946 65.12 36.8386 63.84C38.1186 62.496 38.7586 59.904 38.7586 56.064V33.984H29.8306C25.2226 33.984 21.4146 34.336 18.4066 35.04C15.3986 35.744 13.1586 37.184 11.6866 39.36C10.2146 41.536 9.47859 44.8 9.47859 49.152C9.47859 53.632 10.1506 57.088 11.4946 59.52C12.7746 61.888 14.6306 63.52 17.0626 64.416C19.4306 65.312 22.2146 65.76 25.4146 65.76ZM84.9644 67.68C86.1164 68.896 87.5884 69.504 89.3804 69.504C91.0444 69.504 92.4524 68.896 93.6044 67.68C94.7564 66.464 95.3324 65.024 95.3324 63.36C95.3324 61.76 94.7564 60.384 93.6044 59.232C92.4524 58.016 91.0444 57.408 89.3804 57.408C87.5884 57.408 86.1164 58.016 84.9644 59.232C83.8124 60.384 83.2364 61.76 83.2364 63.36C83.2364 65.024 83.8124 66.464 84.9644 67.68Z" fill="#4448ff"/>
</svg>
