<svg width="50" height="50" viewBox="0 0 50 50" fill="none" xmlns="http://www.w3.org/2000/svg">
<path d="M50 9.3749V40.6249C50 42.3983 48.6484 43.7499 46.875 43.7499H43.75V15.389L25 28.8577L6.25 15.389V43.7499H3.125C1.35156 43.7499 0 42.3983 0 40.6249V9.3749C0 8.4874 0.334375 7.70615 0.895313 7.15303C1.18746 6.86073 1.53539 6.63015 1.91843 6.475C2.30147 6.31986 2.71179 6.24331 3.125 6.2499H4.16719L25 21.3546L45.8328 6.2499H46.875C47.7625 6.2499 48.5438 6.58428 49.1047 7.15303C49.6656 7.70615 50 8.4874 50 9.3749Z" fill="black"/>
</svg>
