<svg width="50" height="50" viewBox="0 0 50 50" fill="none" xmlns="http://www.w3.org/2000/svg">
<path d="M38.0625 12.5003C40.1667 17.0212 39.6875 22.3545 37.375 26.6878C35.4167 30.2087 32.6042 33.1878 30.2083 36.4587C29.1667 37.917 28.125 39.4795 27.3542 41.167C27.0833 41.7295 26.8958 42.3128 26.6875 42.8962C26.4792 43.4795 26.2917 44.0628 26.1042 44.6462C25.9167 45.1878 25.6875 45.8337 25 45.8337C24.1875 45.8337 23.9583 44.917 23.7917 44.292C23.2917 42.7712 22.7917 41.3128 22.0208 39.917C21.1458 38.2712 20.0417 36.7503 18.9167 35.2712L38.0625 12.5003ZM19 17.542L12.125 25.7087C13.3958 28.3962 15.2917 30.6878 17.1042 32.9795C17.5417 33.5003 17.9792 34.042 18.3958 34.6045L27.0833 24.3128L27 24.3337C23.9583 25.3753 20.5833 23.8337 19.375 20.8337C19.2083 20.4795 19.0833 20.0628 19 19.6462C18.8834 18.9566 18.8834 18.2524 19 17.5628V17.542ZM13.7083 9.62533L13.6875 9.64616C10.3125 13.917 9.72916 19.8545 11.75 24.8753L20.0625 15.0003L19.9583 14.8962L13.7083 9.62533ZM29.625 4.91699L22.9167 12.8545L23 12.8337C25.7917 11.8753 28.9167 13.0837 30.3333 15.6253C30.6458 16.2087 30.8958 16.8337 30.9792 17.4587C31.1042 18.2503 31.1458 18.8128 31 19.5837V19.6045L37.6667 11.6878C35.9221 8.52143 33.0637 6.11588 29.6458 4.93783L29.625 4.91699ZM20.6042 14.3545L28.75 4.66699L28.6667 4.64616C27.4583 4.33366 26.2292 4.16699 25 4.16699C20.8958 4.16699 17.0208 5.93783 14.2708 8.97949L14.2292 9.00033L20.6042 14.3545Z" fill="black"/>
</svg>
