<svg width="40" height="41" viewBox="0 0 40 41" fill="none" xmlns="http://www.w3.org/2000/svg">
<path d="M17.5 13.4703H30.8333M17.5 20.137H21.6667M30.8333 20.137H26.6667M17.5 26.8037H21.6667M30.8333 26.8037H26.6667" stroke="#4444FF" stroke-width="2.54795" stroke-linecap="round" stroke-linejoin="round"/>
<path d="M11.6667 12.637H10C6.8573 12.637 5.28595 12.637 4.30965 13.6133C3.33333 14.5896 3.33333 16.1609 3.33333 19.3036V30.137C3.33333 32.4381 5.19882 34.3036 7.5 34.3036C9.80118 34.3036 11.6667 32.4381 11.6667 30.137V12.637Z" stroke="#4444FF" stroke-width="2.54795" stroke-linecap="round" stroke-linejoin="round"/>
<path d="M26.6667 5.97034H18.3333C16.7833 5.97034 16.0084 5.97034 15.3726 6.1407C13.6471 6.60304 12.2994 7.95079 11.837 9.67624C11.6667 10.3121 11.6667 11.0871 11.6667 12.637V30.137C11.6667 32.4382 9.80118 34.3037 7.5 34.3037H26.6667C31.3807 34.3037 33.7377 34.3037 35.2022 32.8392C36.6667 31.3747 36.6667 29.0177 36.6667 24.3037V15.9703C36.6667 11.2563 36.6667 8.89927 35.2022 7.4348C33.7377 5.97034 31.3807 5.97034 26.6667 5.97034Z" stroke="#4444FF" stroke-width="2.54795" stroke-linecap="round" stroke-linejoin="round"/>
</svg>
