<svg width="40" height="40" viewBox="0 0 40 40" fill="none" xmlns="http://www.w3.org/2000/svg">
<path d="M5 11.6665H7.96667C11.5533 11.6665 13.3467 11.6665 14.8 12.4265C15.4205 12.752 15.9857 13.1733 16.475 13.6748C17.6217 14.8465 18.1367 16.5648 19.1667 19.9998C20.1967 23.4348 20.7133 25.1532 21.8583 26.3248C22.3483 26.8265 22.9133 27.2482 23.535 27.5732C24.9867 28.3332 26.78 28.3332 30.3683 28.3332H35M35 28.3332L30 23.3332M35 28.3332L30 33.3332" stroke="#44ff"/>
<path fill-rule="evenodd" clip-rule="evenodd" d="M35.59 11.0767L30.59 6.07666L29.41 7.25666L32.9883 10.8333H30.3267C28.5683 10.8333 27.1933 10.8333 26.0767 10.9317C24.94 11.0317 24.0083 11.2383 23.1483 11.6883C22.4101 12.0749 21.7415 12.5818 21.17 13.1883C21.3817 13.605 21.5667 14.025 21.735 14.445L21.92 14.93C22.075 14.6884 22.2537 14.4629 22.4533 14.2567C22.8818 13.8179 23.3768 13.4495 23.92 13.165C24.5133 12.855 25.2033 12.6817 26.2233 12.5917C27.2567 12.5 28.56 12.5 30.3667 12.5H32.9883L29.41 16.0767L30.59 17.255L35.59 12.255L36.1783 11.6667L35.59 11.0767ZM17.1633 26.81C16.8767 26.2465 16.6262 25.6653 16.4133 25.07C16.2583 25.3115 16.0796 25.5371 15.88 25.7433C15.4516 26.1821 14.9566 26.5505 14.4133 26.835C13.82 27.145 13.13 27.3183 12.11 27.4083C11.0767 27.5 9.775 27.5 7.96667 27.5H5V29.1667H8.00667C9.765 29.1667 11.14 29.1667 12.2567 29.0683C13.3933 28.9683 14.325 28.7617 15.185 28.3117C15.9232 27.925 16.5918 27.4164 17.1633 26.81Z" fill="#44ff"/>
</svg>
