<svg width="40" height="40" viewBox="0 0 40 40" fill="none" xmlns="http://www.w3.org/2000/svg">
<path d="M33.75 10.625H26.875V10C26.875 8.17664 26.1507 6.42795 24.8614 5.13864C23.572 3.84933 21.8234 3.125 20 3.125C18.1766 3.125 16.428 3.84933 15.1386 5.13864C13.8493 6.42795 13.125 8.17664 13.125 10V10.625H6.25C5.75272 10.625 5.27581 10.8225 4.92417 11.1742C4.57254 11.5258 4.375 12.0027 4.375 12.5V31.25C4.375 31.7473 4.57254 32.2242 4.92417 32.5758C5.27581 32.9275 5.75272 33.125 6.25 33.125H33.75C34.2473 33.125 34.7242 32.9275 35.0758 32.5758C35.4275 32.2242 35.625 31.7473 35.625 31.25V12.5C35.625 12.0027 35.4275 11.5258 35.0758 11.1742C34.7242 10.8225 34.2473 10.625 33.75 10.625ZM14.375 10C14.375 8.50816 14.9676 7.07742 16.0225 6.02252C17.0774 4.96763 18.5082 4.375 20 4.375C21.4918 4.375 22.9226 4.96763 23.9775 6.02252C25.0324 7.07742 25.625 8.50816 25.625 10V10.625H14.375V10ZM34.375 31.25C34.375 31.4158 34.3092 31.5747 34.1919 31.6919C34.0747 31.8092 33.9158 31.875 33.75 31.875H6.25C6.08424 31.875 5.92527 31.8092 5.80806 31.6919C5.69085 31.5747 5.625 31.4158 5.625 31.25V12.5C5.625 12.3342 5.69085 12.1753 5.80806 12.0581C5.92527 11.9408 6.08424 11.875 6.25 11.875H13.125V15C13.125 15.1658 13.1908 15.3247 13.3081 15.4419C13.4253 15.5592 13.5842 15.625 13.75 15.625C13.9158 15.625 14.0747 15.5592 14.1919 15.4419C14.3092 15.3247 14.375 15.1658 14.375 15V11.875H25.625V15C25.625 15.1658 25.6908 15.3247 25.8081 15.4419C25.9253 15.5592 26.0842 15.625 26.25 15.625C26.4158 15.625 26.5747 15.5592 26.6919 15.4419C26.8092 15.3247 26.875 15.1658 26.875 15V11.875H33.75C33.9158 11.875 34.0747 11.9408 34.1919 12.0581C34.3092 12.1753 34.375 12.3342 34.375 12.5V31.25Z" fill="#4484FF"/>
</svg>
