<svg width="41" height="41" viewBox="0 0 41 41" fill="none" xmlns="http://www.w3.org/2000/svg">
    <path
        d="M5.61649 19.0105V26.5195C5.61649 31.2392 5.61649 33.5992 7.08095 35.0653C8.54542 36.5317 10.9024 36.5317 15.6165 36.5317H25.6164C30.3304 36.5317 32.6874 36.5317 34.1519 35.0653C35.6164 33.5992 35.6164 31.2392 35.6164 26.5195V19.0105"
        stroke="#058ED9" stroke-width="2.54795" />
    <path d="M25.6164 28.9933C24.4763 30.0053 22.6611 30.66 20.6164 30.66C18.5718 30.66 16.7566 30.0053 15.6165 28.9933"
        stroke="#058ED9" stroke-width="2.54795" stroke-linecap="round" />
    <path
        d="M30.2759 4.87021L10.8662 4.91868C7.96924 4.76945 7.22648 7.00296 7.22648 8.09478C7.22648 9.0713 7.10073 10.4949 5.32521 13.1705C3.54969 15.8461 3.68311 16.6409 4.68433 18.4931C5.51528 20.0305 7.62883 20.631 8.73084 20.732C12.2312 20.8116 13.9342 17.7848 13.9342 15.6574C15.6707 21.0028 20.6091 21.0028 22.8094 20.3915C25.0141 19.7791 26.9026 17.5871 27.3483 15.6574C27.6081 18.0556 28.3968 19.455 30.7269 20.4166C33.1406 21.4126 35.2163 19.8903 36.2578 18.9143C37.2993 17.9385 37.9676 15.772 36.1111 13.3908C34.8308 11.7487 34.2971 10.2016 34.1219 8.59826C34.0203 7.66921 33.9311 6.67091 33.2784 6.03563C32.3244 5.10723 30.9558 4.82553 30.2759 4.87021Z"
        stroke="#058ED9" stroke-width="2.54795" stroke-linecap="round" stroke-linejoin="round" />
</svg>