<svg width="41" height="41" viewBox="0 0 41 41" fill="none" xmlns="http://www.w3.org/2000/svg">
<path d="M36.0662 22.5011V19.3345C36.0662 12.617 36.0662 9.25821 33.7475 7.17134C31.4287 5.08447 27.6967 5.08447 20.2329 5.08447C12.769 5.08447 9.03702 5.08447 6.71827 7.17134C4.39954 9.25821 4.39954 12.617 4.39954 19.3345V22.5011C4.39954 29.2186 4.39954 32.5775 6.71827 34.6643C9.03702 36.7511 12.769 36.7511 20.2329 36.7511C27.6967 36.7511 31.4287 36.7511 33.7475 34.6643C36.0662 32.5775 36.0662 29.2186 36.0662 22.5011Z" stroke="#4444FF" stroke-width="2.54795"/>
<path d="M30.2329 14.2511H23.5662M26.8995 10.9178V17.5845" stroke="#4444FF" stroke-width="2.54795" stroke-linecap="round" stroke-linejoin="round"/>
<path d="M30.2329 30.0845H23.5662" stroke="#4444FF" stroke-width="2.54795" stroke-linecap="round" stroke-linejoin="round"/>
<path d="M30.2329 25.0845H23.5662" stroke="#4444FF" stroke-width="2.54795" stroke-linecap="round" stroke-linejoin="round"/>
<path d="M16.8995 30.0845L13.9829 27.1678M13.9829 27.1678L11.0662 24.2512M13.9829 27.1678L16.8995 24.2512M13.9829 27.1678L11.0662 30.0845" stroke="#4444FF" stroke-width="2.54795" stroke-linecap="round" stroke-linejoin="round"/>
<path d="M16.8995 14.2512H10.2328" stroke="#4444FF" stroke-width="2.54795" stroke-linecap="round" stroke-linejoin="round"/>
</svg>
