<svg width="50" height="50" viewBox="0 0 50 50" fill="none" xmlns="http://www.w3.org/2000/svg">
<path d="M17.3083 36.8582H19.1499V32.6916H23.3166V30.8499H19.1499V26.6833H17.3083V30.8499H13.1416V32.6916H17.3083V36.8582ZM27.7249 35.2957H36.8582V33.4541H27.7249V35.2957ZM27.7249 30.0874H36.8582V28.2458H27.7249V30.0874ZM29.3749 21.852L32.2916 18.9353L35.2083 21.852L36.5145 20.5458L33.5978 17.6041L36.5145 14.6874L35.2083 13.3812L32.2916 16.2978L29.3749 13.3812L28.0687 14.6874L30.9853 17.6041L28.0687 20.5458L29.3749 21.852ZM13.6624 18.5249H22.7958V16.6833H13.6624V18.5249ZM11.6999 41.6666C10.7402 41.6666 9.9395 41.3458 9.29783 40.7041C8.65617 40.0624 8.33464 39.261 8.33325 38.2999V11.6999C8.33325 10.7402 8.65478 9.9395 9.29783 9.29783C9.94089 8.65617 10.7416 8.33464 11.6999 8.33325H38.302C39.2603 8.33325 40.061 8.65478 40.7041 9.29783C41.3471 9.94089 41.668 10.7416 41.6666 11.6999V38.302C41.6666 39.2603 41.3458 40.061 40.7041 40.7041C40.0624 41.3471 39.261 41.668 38.2999 41.6666H11.6999ZM11.6999 39.5833H38.302C38.6214 39.5833 38.9152 39.4499 39.1833 39.1833C39.4513 38.9166 39.5846 38.6221 39.5833 38.2999V11.6999C39.5833 11.3791 39.4499 11.0846 39.1833 10.8166C38.9166 10.5485 38.6221 10.4152 38.2999 10.4166H11.6999C11.3791 10.4166 11.0846 10.5499 10.8166 10.8166C10.5485 11.0833 10.4152 11.3777 10.4166 11.6999V38.302C10.4166 38.6214 10.5499 38.9152 10.8166 39.1833C11.0833 39.4513 11.377 39.5846 11.6978 39.5833" fill="#44ff"/>
</svg>
