<svg width="40" height="41" viewBox="0 0 40 41" fill="none" xmlns="http://www.w3.org/2000/svg">
    <path
        d="M29.1293 20.6988C29.1417 20.6987 29.1542 20.6987 29.1667 20.6987C33.3088 20.6987 36.6667 24.0565 36.6667 28.1987C36.6667 32.3408 33.3088 35.6987 29.1667 35.6987H11.6667C7.0643 35.6987 3.33333 31.9677 3.33333 27.3653C3.33333 23.0325 6.63997 19.4722 10.8674 19.0698M29.1293 20.6988C29.154 20.4243 29.1667 20.1463 29.1667 19.8653C29.1667 14.8027 25.0627 10.6987 20 10.6987C15.2054 10.6987 11.2705 14.3797 10.8674 19.0698M29.1293 20.6988C28.9588 22.5895 28.2143 24.3147 27.0713 25.6987M10.8674 19.0698C11.1304 19.0448 11.397 19.032 11.6667 19.032C13.543 19.032 15.2746 19.6522 16.6675 20.6987"
        stroke="#058ED9" stroke-width="2.54795" stroke-linecap="round" stroke-linejoin="round" />
    <path
        d="M18.3333 9.91622C18.1768 9.11034 17.888 8.31642 17.4587 7.56547C16.4322 5.77012 14.7934 4.55437 12.9624 4.03192C13.2454 6.33134 12.1748 8.6848 10.0626 9.91622C7.95055 11.1476 5.3969 10.9072 3.5664 9.51004C3.09898 11.3725 3.3222 13.4136 4.34866 15.2089C5.73676 17.6368 8.24475 19.0051 10.8333 19.0319"
        stroke="#058ED9" stroke-width="2.54795" stroke-linejoin="round" />
</svg>