<svg width="40" height="40" viewBox="0 0 40 40" fill="none" xmlns="http://www.w3.org/2000/svg">
<path d="M21.7667 36.5382C21.3044 36.5382 20.9106 36.3826 20.585 36.0715C20.2594 35.7582 20.0967 35.3721 20.0967 34.9132C20.0967 34.7009 20.1322 34.4971 20.2033 34.3015C20.2756 34.1071 20.3967 33.9332 20.5667 33.7798L21.7633 32.6598L22.9583 33.7798C23.1294 33.9332 23.2506 34.1087 23.3217 34.3065C23.3928 34.5043 23.4289 34.7115 23.43 34.9282C23.43 35.3771 23.2683 35.7576 22.945 36.0698C22.6217 36.3821 22.2289 36.5382 21.7667 36.5382ZM16.0133 34.1982L14.935 33.1215L19.18 28.8782L20.2567 29.9548L16.0133 34.1982ZM26.7633 31.6982L24.935 29.8715L26.7633 28.0448L28.59 29.8715L26.7633 31.6982ZM11.7633 31.6982L9.93334 29.8715L11.7617 28.0448L13.5883 29.8715L11.7633 31.6982ZM12.5 25.8332C10.1856 25.8332 8.21834 25.0226 6.59834 23.4015C4.97723 21.7815 4.16667 19.8143 4.16667 17.4998C4.16667 15.3443 4.89334 13.4798 6.34667 11.9065C7.80001 10.3332 9.61945 9.42595 11.805 9.18484C12.6317 7.6215 13.7617 6.39428 15.195 5.50317C16.6283 4.61206 18.2256 4.1665 19.9867 4.1665C22.3889 4.1665 24.4494 4.95984 26.1683 6.5465C27.8872 8.13317 28.8878 10.1104 29.17 12.4782C31.2145 12.6015 32.8367 13.3126 34.0367 14.6115C35.2345 15.9115 35.8333 17.4332 35.8333 19.1765C35.8333 21.0187 35.185 22.5887 33.8883 23.8865C32.5928 25.1843 31.0189 25.8332 29.1667 25.8332H12.5ZM12.5 24.1665H29.1667C30.5467 24.1665 31.725 23.6782 32.7017 22.7015C33.6783 21.7248 34.1667 20.5465 34.1667 19.1665C34.1667 17.7865 33.6783 16.6082 32.7017 15.6315C31.725 14.6548 30.5467 14.1665 29.1667 14.1665H27.5V13.3332C27.5 11.2709 26.765 9.50539 25.295 8.0365C23.825 6.56761 22.0583 5.83317 19.995 5.83317C18.495 5.83317 17.1278 6.24039 15.8933 7.05484C14.66 7.87039 13.7306 8.96762 13.105 10.3465L12.9083 10.8332H12.4167C10.6033 10.8965 9.05334 11.5709 7.76667 12.8565C6.47778 14.1432 5.83334 15.6909 5.83334 17.4998C5.83334 19.3409 6.48445 20.9126 7.78667 22.2148C9.08667 23.5159 10.6578 24.1665 12.5 24.1665Z" fill="#44ff"/>
</svg>
